<svg width="32" height="32" fill="none" xmlns="http://www.w3.org/2000/svg"><path d="M16 2.667c7.352 0 13.333 5.981 13.333 13.333S23.352 29.333 16 29.333 2.667 23.352 2.667 16 8.648 2.667 16 2.667ZM16 0C7.164 0 0 7.164 0 16s7.164 16 16 16 16-7.164 16-16S24.836 0 16 0Zm0 8a8 8 0 0 0-2.528 15.59c.4.075.528-.173.528-.385v-1.489c-2.225.484-2.69-.943-2.69-.943-.362-.924-.887-1.17-.887-1.17-.726-.498.054-.487.054-.487.804.056 1.227.825 1.227.825.713 1.223 1.87.87 2.328.666.072-.518.279-.87.508-1.07-1.777-.202-3.644-.889-3.644-3.953 0-.873.312-1.587.824-2.147-.083-.204-.357-1.018.077-2.12 0 0 .672-.214 2.2.82A7.712 7.712 0 0 1 16 11.868c.68.003 1.364.092 2.004.27 1.528-1.035 2.197-.82 2.197-.82.436 1.1.162 1.915.08 2.117.514.56.823 1.273.823 2.146 0 3.074-1.872 3.75-3.653 3.947.288.248.549.735.549 1.481v2.195c0 .213.128.463.533.384A8 8 0 0 0 16 8Z" fill="#fff"/></svg>