<svg width="32" height="32" fill="none" xmlns="http://www.w3.org/2000/svg"><path d="M16 2.667c7.352 0 13.333 5.981 13.333 13.333S23.352 29.333 16 29.333 2.667 23.352 2.667 16 8.648 2.667 16 2.667ZM16 0C7.164 0 0 7.164 0 16s7.164 16 16 16 16-7.164 16-16S24.836 0 16 0Zm6.153 8H9.847A1.845 1.845 0 0 0 8 9.845v12.307C8 23.173 8.825 24 9.847 24h12.306A1.846 1.846 0 0 0 24 22.153V9.847C24 8.827 23.175 8 22.153 8ZM16 12.924A3.078 3.078 0 0 1 19.079 16a3.078 3.078 0 0 1-6.155 0A3.076 3.076 0 0 1 16 12.924Zm6 8.461c0 .34-.276.615-.615.615h-10.77a.616.616 0 0 1-.615-.615v-6.718h1.265A4.939 4.939 0 0 0 11.08 16a4.922 4.922 0 1 0 9.842 0c0-.232-.02-.461-.052-.685a4.923 4.923 0 0 0-.136-.648H22v6.718Zm0-9.321c0 .34-.276.616-.615.616h-1.45a.615.615 0 0 1-.615-.616v-1.45c0-.34.273-.614.615-.614h1.45c.339 0 .615.276.615.615v1.449Z" fill="#fff"/></svg>