<svg width="32" height="32" fill="none" xmlns="http://www.w3.org/2000/svg"><path d="M16 2.667c7.352 0 13.333 5.981 13.333 13.333S23.352 29.333 16 29.333 2.667 23.352 2.667 16 8.648 2.667 16 2.667ZM16 0C7.164 0 0 7.164 0 16s7.164 16 16 16 16-7.164 16-16S24.836 0 16 0Zm8.667 11.704a6.572 6.572 0 0 1-1.886.517 3.296 3.296 0 0 0 1.444-1.816 6.566 6.566 0 0 1-2.085.796 3.286 3.286 0 0 0-5.593 2.993 9.324 9.324 0 0 1-6.766-3.429 3.287 3.287 0 0 0 1.016 4.383 3.275 3.275 0 0 1-1.485-.41c-.036 1.52 1.055 2.942 2.633 3.26a3.288 3.288 0 0 1-1.482.055 3.287 3.287 0 0 0 3.066 2.279 6.606 6.606 0 0 1-4.862 1.361 9.284 9.284 0 0 0 5.03 1.475c6.096 0 9.539-5.148 9.331-9.765a6.618 6.618 0 0 0 1.639-1.699Z" fill="#fff"/></svg>