<svg width="32" height="32" fill="none" xmlns="http://www.w3.org/2000/svg"><path d="M16 0C7.164 0 0 7.164 0 16s7.164 16 16 16 16-7.164 16-16S24.836 0 16 0Zm1.333 21.41v-4.077h3.992a24.685 24.685 0 0 1-.608 4.372 32.36 32.36 0 0 0-3.384-.296Zm2.61 2.882c-.666 1.773-1.546 3.33-2.61 4.608v-4.827c.888.038 1.759.108 2.61.219Zm-2.61-9.625v-4.02a32.263 32.263 0 0 0 3.398-.299 24.65 24.65 0 0 1 .594 4.319h-3.992Zm0-6.686V3.1c1.075 1.292 1.962 2.867 2.628 4.661-.856.112-1.733.183-2.628.22Zm3.604-4.356a13.37 13.37 0 0 1 4.387 2.862c-.856.312-1.748.589-2.692.809a20.427 20.427 0 0 0-1.695-3.67Zm-9.654 18.08a24.565 24.565 0 0 1-.608-4.372h3.992v4.076a32.358 32.358 0 0 0-3.384.296Zm3.384 2.368V28.9c-1.064-1.279-1.944-2.835-2.61-4.608.851-.11 1.722-.181 2.61-.219Zm-3.992-9.406c.076-1.504.276-2.95.594-4.319 1.103.161 2.24.253 3.398.299v4.02h-3.992ZM12.04 7.76c.667-1.794 1.553-3.369 2.627-4.661v4.881a29.8 29.8 0 0 1-2.627-.22Zm-2.673-.466a23.134 23.134 0 0 1-2.691-.81 13.384 13.384 0 0 1 4.387-2.861 20.607 20.607 0 0 0-1.696 3.67Zm-.732 2.557a27.174 27.174 0 0 0-.656 4.815H2.735c.22-2.211.985-4.263 2.156-6.024a25.42 25.42 0 0 0 3.744 1.209Zm.012 12.35c-1.318.314-2.56.722-3.73 1.2a13.23 13.23 0 0 1-2.182-6.069H7.98c.077 1.687.308 3.318.667 4.868Zm.737 2.555a20.473 20.473 0 0 0 1.676 3.616 13.345 13.345 0 0 1-4.341-2.82c.848-.305 1.732-.58 2.665-.796Zm13.232 0c.933.218 1.816.49 2.665.796a13.415 13.415 0 0 1-4.342 2.822 20.631 20.631 0 0 0 1.677-3.618Zm.737-2.556c.36-1.55.59-3.181.668-4.868h5.246a13.248 13.248 0 0 1-2.184 6.068 25.65 25.65 0 0 0-3.73-1.2Zm.668-7.534a27.292 27.292 0 0 0-.656-4.815 25.44 25.44 0 0 0 3.746-1.21 13.248 13.248 0 0 1 2.154 6.025h-5.244Z" fill="#fff"/></svg>